<svg width="190" height="89" viewBox="0 0 190 89" fill="none" xmlns="http://www.w3.org/2000/svg">
<path fill-rule="evenodd" clip-rule="evenodd" d="M39.8424 3.20406L35.9647 2.16469C33.2647 1.46469 30.5647 3.06469 29.8647 5.66469C29.1647 8.36469 30.7647 11.0647 33.3647 11.7647L34.8725 12.1746L34.8522 12.2113L12.7647 6.26469C10.0647 5.56469 7.36469 7.16469 6.66469 9.76469C5.96469 12.4647 7.56469 15.1647 10.1647 15.8647L29.902 21.1465L29.8414 21.2558L8.26469 15.4647C5.56469 14.7647 2.86469 16.3647 2.16469 18.9647C1.46469 21.6647 3.06469 24.3647 5.66469 25.0647L24.8747 30.2206L24.8517 30.2622L9.5647 26.1647C6.8647 25.4647 4.16469 27.0647 3.46469 29.6647C2.76469 32.3647 4.36469 35.0647 6.96469 35.7647L19.8864 39.2246L19.8643 39.2646L68.3643 52.2646L78.7643 13.6646L39.8643 3.16455L39.8424 3.20406Z" fill="#DDF1FA"/>
<path d="M39.8424 3.20406L39.5187 4.41144C40.0732 4.56006 40.6576 4.31196 40.9358 3.80986L39.8424 3.20406ZM35.9647 2.16469L36.2883 0.957267L36.2784 0.954691L35.9647 2.16469ZM29.8647 5.66469L28.6576 5.33971L28.6547 5.35098L29.8647 5.66469ZM33.3647 11.7647L33.6926 10.5585L33.6897 10.5577L33.3647 11.7647ZM34.8725 12.1746L35.9659 12.7804C36.152 12.4446 36.1734 12.0418 36.024 11.6882C35.8746 11.3345 35.5709 11.0691 35.2005 10.9684L34.8725 12.1746ZM34.8522 12.2113L34.5272 13.4183C35.082 13.5677 35.6671 13.3197 35.9456 12.8171L34.8522 12.2113ZM12.7647 6.26469L13.0897 5.05761L13.0784 5.05469L12.7647 6.26469ZM6.66469 9.76469L5.45762 9.43971L5.45469 9.45098L6.66469 9.76469ZM10.1647 15.8647L9.83972 17.0717L9.84155 17.0722L10.1647 15.8647ZM29.902 21.1465L30.9954 21.7523C31.1819 21.4157 31.2029 21.0119 31.0525 20.6578C30.902 20.3036 30.5968 20.0385 30.2251 19.939L29.902 21.1465ZM29.8414 21.2558L29.5174 22.4631C30.0719 22.6119 30.6565 22.3639 30.9348 21.8616L29.8414 21.2558ZM8.26469 15.4647L8.58874 14.2574L8.5784 14.2547L8.26469 15.4647ZM2.16469 18.9647L0.957615 18.6397L0.954691 18.651L2.16469 18.9647ZM5.66469 25.0647L5.33972 26.2717L5.34066 26.272L5.66469 25.0647ZM24.8747 30.2206L25.9682 30.8264C26.1546 30.4899 26.1757 30.0864 26.0254 29.7323C25.8752 29.3782 25.5703 29.1131 25.1988 29.0134L24.8747 30.2206ZM24.8517 30.2622L24.5281 31.4696C25.0825 31.6182 25.6669 31.3701 25.9451 30.868L24.8517 30.2622ZM9.5647 26.1647L9.88834 24.9573L9.8784 24.9547L9.5647 26.1647ZM3.46469 29.6647L2.25762 29.3397L2.25469 29.351L3.46469 29.6647ZM6.96469 35.7647L6.63972 36.9717L6.64138 36.9722L6.96469 35.7647ZM19.8864 39.2246L20.9798 39.8303C21.1663 39.4938 21.1873 39.0901 21.0369 38.7359C20.8865 38.3818 20.5814 38.1166 20.2097 38.0171L19.8864 39.2246ZM19.8643 39.2646L18.7708 38.6588C18.5844 38.9953 18.5633 39.3989 18.7137 39.7531C18.864 40.1072 19.169 40.3723 19.5406 40.4719L19.8643 39.2646ZM68.3643 52.2646L68.0406 53.4719C68.7068 53.6505 69.3918 53.2557 69.5712 52.5897L68.3643 52.2646ZM78.7643 13.6646L79.9712 13.9897C80.1508 13.3234 79.7563 12.6376 79.09 12.4577L78.7643 13.6646ZM39.8643 3.16455L40.19 1.95774C39.635 1.80794 39.0494 2.05594 38.7709 2.55876L39.8643 3.16455ZM40.166 1.99669L36.2883 0.957308L35.6411 3.37207L39.5187 4.41144L40.166 1.99669ZM36.2784 0.954691C32.9187 0.0836519 29.5371 2.07337 28.6577 5.33972L31.0717 5.98965C31.5923 4.056 33.6107 2.84572 35.651 3.37468L36.2784 0.954691ZM28.6547 5.35098C27.7836 8.71071 29.7734 12.0923 33.0397 12.9717L33.6897 10.5577C31.756 10.0371 30.5457 8.01866 31.0747 5.97839L28.6547 5.35098ZM33.0368 12.9709L34.5446 13.3808L35.2005 10.9684L33.6926 10.5585L33.0368 12.9709ZM33.7792 11.5688L33.7588 11.6055L35.9456 12.8171L35.9659 12.7804L33.7792 11.5688ZM35.1772 11.0043L13.0897 5.05767L12.4397 7.47171L34.5272 13.4183L35.1772 11.0043ZM13.0784 5.05469C9.71867 4.18365 6.33707 6.17337 5.45767 9.43972L7.87171 10.0897C8.39231 8.156 10.4107 6.94572 12.451 7.47468L13.0784 5.05469ZM5.45469 9.45098C4.58365 12.8107 6.57337 16.1923 9.83972 17.0717L10.4897 14.6577C8.556 14.1371 7.34572 12.1187 7.87468 10.0784L5.45469 9.45098ZM9.84155 17.0722L29.5788 22.354L30.2251 19.939L10.4878 14.6572L9.84155 17.0722ZM28.8086 20.5407L28.748 20.6501L30.9348 21.8616L30.9954 21.7523L28.8086 20.5407ZM30.1654 20.0486L8.58872 14.2574L7.94066 16.672L29.5174 22.4631L30.1654 20.0486ZM8.5784 14.2547C5.21867 13.3837 1.83707 15.3734 0.957668 18.6397L3.37171 19.2897C3.89231 17.356 5.91071 16.1457 7.95099 16.6747L8.5784 14.2547ZM0.954691 18.651C0.0836514 22.0107 2.07337 25.3923 5.33972 26.2717L5.98965 23.8577C4.056 23.3371 2.84572 21.3187 3.37468 19.2784L0.954691 18.651ZM5.34066 26.272L24.5507 31.4279L25.1988 29.0134L5.98872 23.8574L5.34066 26.272ZM23.7813 29.6149L23.7583 29.6565L25.9451 30.868L25.9682 30.8264L23.7813 29.6149ZM25.1753 29.0549L9.88832 24.9573L9.24107 27.3721L24.5281 31.4696L25.1753 29.0549ZM9.8784 24.9547C6.51868 24.0836 3.13707 26.0734 2.25767 29.3397L4.67171 29.9897C5.19231 28.056 7.21072 26.8457 9.25099 27.3747L9.8784 24.9547ZM2.25469 29.351C1.38365 32.7107 3.37337 36.0923 6.63972 36.9717L7.28966 34.5577C5.35601 34.0371 4.14573 32.0187 4.67469 29.9784L2.25469 29.351ZM6.64138 36.9722L19.5631 40.4321L20.2097 38.0171L7.288 34.5572L6.64138 36.9722ZM18.793 38.6189L18.7708 38.6588L20.9577 39.8703L20.9798 39.8303L18.793 38.6189ZM19.5406 40.4719L68.0406 53.4719L68.6879 51.0572L20.1879 38.0572L19.5406 40.4719ZM69.5712 52.5897L79.9712 13.9897L77.5573 13.3394L67.1573 51.9394L69.5712 52.5897ZM79.09 12.4577L40.19 1.95774L39.5385 4.37136L78.4385 14.8714L79.09 12.4577ZM38.7709 2.55876L38.749 2.59827L40.9358 3.80986L40.9577 3.77034L38.7709 2.55876Z" fill="#3A5E77"/>
<path d="M10.8643 29.6645L8.66426 29.0645C7.56426 28.7645 6.46427 29.3645 6.26427 30.4645C5.96427 31.5645 6.56426 32.6645 7.66426 32.8645L9.86426 33.4645L10.8643 29.6645V29.6645ZM9.66426 18.9645L7.46426 18.3645C6.36426 18.0645 5.26427 18.6645 5.06427 19.7645C4.76427 20.8645 5.36426 21.9645 6.46426 22.1645L8.66426 22.7645L9.66426 18.9645ZM14.1643 9.76446L11.9643 9.16446C10.8643 8.86446 9.76427 9.46446 9.56427 10.5645C9.26427 11.6645 9.86426 12.7645 10.9643 12.9645L13.1643 13.5645L14.1643 9.76446ZM37.5643 4.36447L35.3643 3.76446C34.2643 3.46446 33.1643 4.06446 32.9643 5.16446C32.6643 6.26446 33.2643 7.36446 34.3643 7.56446L36.5643 8.16446L37.5643 4.36447Z" fill="#A9DDF3"/>
<path fill-rule="evenodd" clip-rule="evenodd" d="M79.7331 13.495L62.5647 4.26465L65.0647 16.1646L54.3646 22.6646L64.2646 31.3647L50.3646 37.7647L59.4646 43.6646L46.2646 52.8647L67.3199 52.0443C70.7501 53.2794 74.188 54.52 77.6224 55.7594C81.0795 57.0069 84.533 58.2531 87.9714 59.4911C88.8864 62.5352 90.9414 65.9836 94.1647 69.8647C97.3425 68.2303 100.273 66.596 103.031 64.8868C103.456 65.0382 103.881 65.1893 104.305 65.34C106.181 69.2887 109.348 73.6635 113.965 78.4646C116.665 76.3646 119.065 74.0646 121.065 71.6646C125.165 75.0646 130.065 78.6646 135.765 82.6646C136.446 80.7348 136.934 78.7404 137.21 76.6634C151.809 81.4476 164.672 85.2141 174.465 87.1645L188.465 34.8645C182.986 33.2454 177.376 31.7172 171.65 30.27C172.102 28.6399 172.744 26.4728 173.465 24.4646C165.826 24.7407 159.289 25.2709 154.008 26.1331C153.566 26.0369 153.124 25.941 152.68 25.8456C152.764 22.9289 152.759 20.0913 152.665 17.1646C144.859 18.3727 139.125 20.0989 135.304 22.3433C134.885 22.2641 134.465 22.1853 134.045 22.1067C132.584 19.4747 131.116 16.9113 129.565 14.2646C125.285 15.2752 121.641 17.6992 119.389 19.4992C106.446 17.3072 93.1855 15.3352 79.7331 13.495Z" fill="white"/>
<path d="M79.7331 13.495L79.1412 14.596C79.2727 14.6667 79.4158 14.7132 79.5637 14.7335L79.7331 13.495ZM62.5647 4.26465L63.1566 3.16368C62.7283 2.9334 62.2053 2.97243 61.8159 3.26374C61.4265 3.55504 61.2414 4.04574 61.3414 4.52164L62.5647 4.26465ZM65.0647 16.1646L65.7136 17.233C66.1668 16.9577 66.397 16.4265 66.2879 15.9077L65.0647 16.1646ZM54.3646 22.6646L53.7157 21.5963C53.3756 21.8029 53.1542 22.159 53.1194 22.5554C53.0846 22.9517 53.2406 23.341 53.5395 23.6036L54.3646 22.6646ZM64.2646 31.3647L64.7874 32.5001C65.1718 32.3231 65.4405 31.9637 65.5016 31.5449C65.5626 31.1262 65.4076 30.705 65.0898 30.4257L64.2646 31.3647ZM50.3646 37.7647L49.8419 36.6292C49.428 36.8198 49.1506 37.2204 49.1179 37.6749C49.0852 38.1294 49.3023 38.5656 49.6846 38.8135L50.3646 37.7647ZM59.4646 43.6646L60.1794 44.6901C60.5208 44.4522 60.7214 44.0599 60.7145 43.6437C60.7075 43.2276 60.4939 42.8422 60.1447 42.6158L59.4646 43.6646ZM46.2646 52.8647L45.5499 51.8392C45.0945 52.1565 44.903 52.7362 45.0796 53.2624C45.2562 53.7886 45.7587 54.1353 46.3133 54.1137L46.2646 52.8647ZM67.3199 52.0443L67.7433 50.8682C67.5921 50.8138 67.4318 50.789 67.2712 50.7953L67.3199 52.0443ZM77.6224 55.7594L78.0467 54.5836L78.0467 54.5836L77.6224 55.7594ZM87.9714 59.4911L89.1684 59.1312C89.0544 58.752 88.7674 58.4491 88.3948 58.315L87.9714 59.4911ZM94.1647 69.8647L93.203 70.6633C93.5775 71.1142 94.2151 71.2443 94.7363 70.9763L94.1647 69.8647ZM103.031 64.8868L103.45 63.7092C103.092 63.5818 102.696 63.6241 102.373 63.8243L103.031 64.8868ZM104.305 65.34L105.435 64.8037C105.292 64.5041 105.037 64.2733 104.724 64.1622L104.305 65.34ZM113.965 78.4646L113.064 79.331C113.507 79.7922 114.227 79.8441 114.732 79.4513L113.965 78.4646ZM121.065 71.6646L121.863 70.7024C121.332 70.2625 120.546 70.335 120.104 70.8644L121.065 71.6646ZM135.765 82.6646L135.047 83.6878C135.367 83.9124 135.773 83.9743 136.146 83.8551C136.518 83.7359 136.813 83.4494 136.943 83.0807L135.765 82.6646ZM137.21 76.6634L137.599 75.4756C137.246 75.3598 136.86 75.4072 136.545 75.605C136.23 75.8027 136.02 76.1302 135.971 76.4986L137.21 76.6634ZM174.465 87.1645L174.22 88.3904C174.867 88.5191 175.502 88.1241 175.672 87.4877L174.465 87.1645ZM188.465 34.8645L189.672 35.1877C189.847 34.5329 189.469 33.8578 188.819 33.6657L188.465 34.8645ZM171.65 30.27L170.445 29.9356C170.355 30.2599 170.4 30.6068 170.569 30.8978C170.738 31.1888 171.017 31.3994 171.344 31.4819L171.65 30.27ZM173.465 24.4646L174.641 24.887C174.781 24.4965 174.719 24.062 174.474 23.7271C174.229 23.3921 173.834 23.2005 173.419 23.2155L173.465 24.4646ZM154.008 26.1331L153.742 27.3545C153.896 27.3879 154.055 27.3921 154.21 27.3668L154.008 26.1331ZM152.68 25.8456L151.431 25.8097C151.414 26.4118 151.828 26.9407 152.417 27.0676L152.68 25.8456ZM152.665 17.1646L153.914 17.1243C153.902 16.7667 153.738 16.4311 153.463 16.2026C153.187 15.9741 152.827 15.8746 152.473 15.9294L152.665 17.1646ZM135.304 22.3433L135.072 23.5716C135.369 23.6276 135.676 23.5742 135.937 23.4211L135.304 22.3433ZM134.045 22.1067L132.952 22.7134C133.133 23.0389 133.449 23.267 133.815 23.3354L134.045 22.1067ZM129.565 14.2646L130.643 13.6325C130.365 13.159 129.812 12.922 129.277 13.0481L129.565 14.2646ZM119.389 19.4992L119.18 20.7316C119.531 20.7911 119.891 20.6979 120.169 20.4755L119.389 19.4992ZM80.325 12.394L63.1566 3.16368L61.9727 5.36562L79.1412 14.596L80.325 12.394ZM61.3414 4.52164L63.8414 16.4216L66.2879 15.9077L63.7879 4.00765L61.3414 4.52164ZM64.4157 15.0963L53.7157 21.5963L55.0136 23.733L65.7136 17.233L64.4157 15.0963ZM53.5395 23.6036L63.4395 32.3036L65.0898 30.4257L55.1898 21.7257L53.5395 23.6036ZM63.7418 30.2292L49.8419 36.6292L50.8874 38.9001L64.7874 32.5001L63.7418 30.2292ZM49.6846 38.8135L58.7846 44.7135L60.1447 42.6158L51.0447 36.7158L49.6846 38.8135ZM58.7499 42.6391L45.5499 51.8392L46.9794 53.8901L60.1794 44.6901L58.7499 42.6391ZM46.3133 54.1137L67.3685 53.2934L67.2712 50.7953L46.216 51.6156L46.3133 54.1137ZM66.8964 53.2204C70.3261 54.4553 73.7637 55.6958 77.1981 56.9351L78.0467 54.5836C74.6124 53.3443 71.174 52.1035 67.7433 50.8682L66.8964 53.2204ZM77.1981 56.9351C80.6552 58.1826 84.109 59.429 87.5479 60.6672L88.3948 58.315C84.9569 57.0771 81.5039 55.8311 78.0467 54.5836L77.1981 56.9351ZM86.7743 59.8509C87.7574 63.1214 89.9276 66.7194 93.203 70.6633L95.1263 69.066C91.9552 65.2478 90.0155 61.949 89.1684 59.1312L86.7743 59.8509ZM94.7363 70.9763C97.9375 69.33 100.898 67.6794 103.69 65.9493L102.373 63.8243C99.6483 65.5126 96.7475 67.1307 93.593 68.753L94.7363 70.9763ZM102.612 66.0645C103.037 66.2159 103.462 66.367 103.887 66.5179L104.724 64.1622C104.3 64.0115 103.875 63.8605 103.45 63.7092L102.612 66.0645ZM103.176 65.8763C105.128 69.9854 108.389 74.4698 113.064 79.331L114.866 77.5983C110.307 72.8573 107.234 68.5919 105.435 64.8037L103.176 65.8763ZM114.732 79.4513C117.497 77.3012 119.963 74.9396 122.025 72.4649L120.104 70.8644C118.167 73.1897 115.833 75.4281 113.197 77.478L114.732 79.4513ZM120.267 72.6268C124.406 76.059 129.338 79.6817 135.047 83.6878L136.483 81.6414C130.791 77.6476 125.924 74.0703 121.863 70.7024L120.267 72.6268ZM136.943 83.0807C137.652 81.0717 138.161 78.9932 138.449 76.8282L135.971 76.4986C135.706 78.4876 135.239 80.3979 134.586 82.2486L136.943 83.0807ZM136.821 77.8512C151.429 82.6385 164.351 86.4247 174.22 88.3904L174.709 85.9385C164.994 84.0035 152.189 80.2568 137.599 75.4756L136.821 77.8512ZM175.672 87.4877L189.672 35.1877L187.257 34.5412L173.257 86.8412L175.672 87.4877ZM188.819 33.6657C183.323 32.0415 177.697 30.509 171.956 29.0581L171.344 31.4819C177.055 32.9255 182.649 34.4493 188.11 36.0632L188.819 33.6657ZM172.288 24.0423C171.552 26.0917 170.902 28.2919 170.445 29.9356L172.854 30.6044C173.303 28.988 173.935 26.8539 174.641 24.887L172.288 24.0423ZM154.21 27.3668C159.417 26.5165 165.897 25.989 173.51 25.7138L173.419 23.2155C165.756 23.4925 159.16 24.0253 153.807 24.8994L154.21 27.3668ZM154.274 24.9117C153.831 24.8153 153.388 24.7192 152.944 24.6236L152.417 27.0676C152.86 27.1628 153.301 27.2585 153.742 27.3545L154.274 24.9117ZM151.415 17.205C151.509 20.1064 151.514 22.9185 151.431 25.8097L153.93 25.8815C154.015 22.9393 154.009 20.0763 153.914 17.1243L151.415 17.205ZM135.937 23.4211C139.557 21.2951 145.107 19.5991 152.856 18.3999L152.473 15.9294C144.61 17.1463 138.694 18.9027 134.671 21.2654L135.937 23.4211ZM135.536 21.115C135.116 21.0357 134.696 20.9567 134.275 20.8781L133.815 23.3354C134.235 23.4139 134.654 23.4926 135.072 23.5716L135.536 21.115ZM128.486 14.8968C130.034 17.5363 131.497 20.0911 132.952 22.7134L135.138 21.5001C133.672 18.8582 132.199 16.2863 130.643 13.6325L128.486 14.8968ZM120.169 20.4755C122.355 18.7281 125.83 16.4309 129.852 15.4812L129.277 13.0481C124.74 14.1195 120.926 16.6703 118.608 18.5228L120.169 20.4755ZM119.598 18.2667C106.638 16.072 93.3641 14.098 79.9025 12.2565L79.5637 14.7335C93.007 16.5724 106.254 18.5425 119.18 20.7316L119.598 18.2667Z" fill="#3A5E77"/>
</svg>
