<svg width="190" height="90" viewBox="0 0 190 90" fill="none" xmlns="http://www.w3.org/2000/svg">
<path fill-rule="evenodd" clip-rule="evenodd" d="M155.592 13.1103L155.612 13.1471L177.7 7.20024C180.4 6.50024 183.1 8.10024 183.8 10.7002C184.5 13.4002 182.9 16.1002 180.3 16.8002L160.562 22.0822L160.623 22.1916L182.2 16.4002C184.9 15.7002 187.6 17.3002 188.3 19.9002C189 22.6002 187.4 25.3002 184.8 26.0002L165.589 31.1564L165.625 31.2213L181 27.1002C183.7 26.4002 186.4 28.0002 187.1 30.6002C187.8 33.3002 186.2 36.0002 183.6 36.7002L170.591 40.1837L170.6 40.2001L122.1 53.2001L111.8 14.5001L150.6 4.1001L150.624 4.14449L154.5 3.10023C157.2 2.40023 159.9 4.00023 160.6 6.60023C161.3 9.30023 159.7 12.0002 157.1 12.7002L155.592 13.1103Z" fill="#DDF1FA"/>
<path d="M155.592 13.1103L155.264 11.9041C154.893 12.0048 154.59 12.2702 154.44 12.6239C154.291 12.9775 154.312 13.3802 154.498 13.7161L155.592 13.1103ZM155.612 13.1471L154.519 13.7528C154.797 14.2554 155.382 14.5035 155.937 14.3541L155.612 13.1471ZM177.7 7.20024L177.386 5.99019L177.375 5.99322L177.7 7.20024ZM183.8 10.7002L185.01 10.3865L185.007 10.3753L183.8 10.7002ZM180.3 16.8002L180.623 18.0077L180.625 18.0073L180.3 16.8002ZM160.562 22.0822L160.239 20.8747C159.867 20.9742 159.562 21.2393 159.412 21.5935C159.261 21.9477 159.282 22.3514 159.469 22.688L160.562 22.0822ZM160.623 22.1916L159.529 22.7973C159.808 23.2996 160.392 23.5477 160.947 23.3989L160.623 22.1916ZM182.2 16.4002L181.886 15.1902L181.876 15.193L182.2 16.4002ZM188.3 19.9002L189.51 19.5865L189.507 19.5753L188.3 19.9002ZM184.8 26.0002L185.124 27.2075L185.125 27.2073L184.8 26.0002ZM165.589 31.1564L165.265 29.9491C164.894 30.0488 164.589 30.314 164.439 30.6681C164.288 31.0222 164.31 31.4257 164.496 31.7621L165.589 31.1564ZM165.625 31.2213L164.532 31.8271C164.81 32.3292 165.395 32.5773 165.949 32.4287L165.625 31.2213ZM181 27.1002L180.686 25.8902L180.677 25.8929L181 27.1002ZM187.1 30.6002L188.31 30.2865L188.307 30.2753L187.1 30.6002ZM183.6 36.7002L183.924 37.9077L183.925 37.9073L183.6 36.7002ZM170.591 40.1837L170.267 38.9762C169.896 39.0757 169.591 39.3409 169.44 39.695C169.29 40.0492 169.311 40.4529 169.497 40.7895L170.591 40.1837ZM170.6 40.2001L170.923 41.4075C171.295 41.3079 171.6 41.0427 171.75 40.6886C171.901 40.3344 171.88 39.9308 171.693 39.5943L170.6 40.2001ZM122.1 53.2001L120.892 53.5216C120.977 53.8423 121.187 54.116 121.474 54.2821C121.761 54.4483 122.103 54.4934 122.423 54.4075L122.1 53.2001ZM111.8 14.5001L111.476 13.2927C110.81 13.4712 110.415 14.1553 110.592 14.8216L111.8 14.5001ZM150.6 4.1001L151.693 3.49435C151.415 2.99222 150.831 2.7441 150.276 2.89272L150.6 4.1001ZM150.624 4.14449L149.531 4.75024C149.809 5.25289 150.395 5.50094 150.95 5.35145L150.624 4.14449ZM154.5 3.10023L154.186 1.89018L154.175 1.89328L154.5 3.10023ZM160.6 6.60023L161.81 6.28652L161.807 6.27527L160.6 6.60023ZM157.1 12.7002L156.775 11.4932L156.772 11.494L157.1 12.7002ZM154.498 13.7161L154.519 13.7528L156.705 12.5413L156.685 12.5046L154.498 13.7161ZM155.937 14.3541L178.025 8.40726L177.375 5.99322L155.287 11.94L155.937 14.3541ZM178.014 8.41023C180.054 7.88127 182.073 9.09156 182.593 11.0252L185.007 10.3753C184.128 7.10892 180.746 5.1192 177.386 5.99024L178.014 8.41023ZM182.59 11.0139C183.119 13.0542 181.909 15.0726 179.975 15.5932L180.625 18.0073C183.892 17.1279 185.881 13.7463 185.01 10.3865L182.59 11.0139ZM179.977 15.5927L160.239 20.8747L160.885 23.2897L180.623 18.0077L179.977 15.5927ZM159.469 22.688L159.529 22.7973L161.716 21.5858L161.656 21.4765L159.469 22.688ZM160.947 23.3989L182.524 17.6075L181.876 15.193L160.299 20.9843L160.947 23.3989ZM182.514 17.6102C184.554 17.0813 186.573 18.2916 187.093 20.2252L189.507 19.5753C188.628 16.3089 185.246 14.3192 181.886 15.1902L182.514 17.6102ZM187.09 20.2139C187.619 22.2542 186.409 24.2726 184.475 24.7932L185.125 27.2073C188.392 26.3278 190.381 22.9463 189.51 19.5865L187.09 20.2139ZM184.476 24.793L165.265 29.9491L165.913 32.3636L185.124 27.2075L184.476 24.793ZM164.496 31.7621L164.532 31.8271L166.719 30.6155L166.683 30.5506L164.496 31.7621ZM165.949 32.4287L181.324 28.3076L180.677 25.8929L165.302 30.0139L165.949 32.4287ZM181.314 28.3102C183.354 27.7813 185.373 28.9916 185.893 30.9252L188.307 30.2753C187.428 27.0089 184.046 25.0192 180.686 25.8902L181.314 28.3102ZM185.89 30.9139C186.419 32.9542 185.209 34.9726 183.275 35.4932L183.925 37.9073C187.192 37.0279 189.181 33.6463 188.31 30.2865L185.89 30.9139ZM183.277 35.4928L170.267 38.9762L170.914 41.3911L183.924 37.9077L183.277 35.4928ZM169.497 40.7895L169.506 40.8059L171.693 39.5943L171.684 39.5779L169.497 40.7895ZM170.276 38.9927L121.776 51.9927L122.423 54.4075L170.923 41.4075L170.276 38.9927ZM123.308 52.8786L113.008 14.1786L110.592 14.8216L120.892 53.5216L123.308 52.8786ZM112.123 15.7075L150.923 5.30748L150.276 2.89272L111.476 13.2927L112.123 15.7075ZM149.506 4.70585L149.531 4.75024L151.718 3.53874L151.693 3.49435L149.506 4.70585ZM150.95 5.35145L154.825 4.30719L154.175 1.89328L150.299 2.93753L150.95 5.35145ZM154.814 4.31023C156.854 3.78127 158.873 4.99155 159.393 6.9252L161.807 6.27527C160.928 3.00892 157.546 1.0192 154.186 1.89024L154.814 4.31023ZM159.39 6.91394C159.919 8.95421 158.709 10.9726 156.775 11.4932L157.425 13.9073C160.692 13.0279 162.681 9.64626 161.81 6.28653L159.39 6.91394ZM156.772 11.494L155.264 11.9041L155.92 14.3166L157.428 13.9065L156.772 11.494Z" fill="#3A5E77"/>
<path d="M179.6 30.4999L181.8 29.8999C182.9 29.5999 184 30.1999 184.2 31.2999C184.5 32.3999 183.9 33.4999 182.8 33.6999L180.6 34.2999L179.6 30.4999V30.4999ZM180.9 19.7999L183.1 19.1999C184.2 18.8999 185.3 19.4999 185.5 20.5999C185.8 21.6999 185.2 22.7999 184.1 22.9999L181.9 23.5999L180.9 19.7999ZM176.3 10.6999L178.5 10.0999C179.6 9.79991 180.7 10.3999 180.9 11.4999C181.2 12.5999 180.6 13.6999 179.5 13.8999L177.3 14.4999L176.3 10.6999ZM152.9 5.19991L155.1 4.59991C156.2 4.29991 157.3 4.89991 157.5 5.99991C157.8 7.09991 157.2 8.19991 156.1 8.39991L153.9 8.99991L152.9 5.19991Z" fill="#A9DDF3"/>
<path fill-rule="evenodd" clip-rule="evenodd" d="M122.46 53.2626C119.29 54.4043 116.114 55.5502 112.942 56.695C106.39 59.0592 99.8514 61.4188 93.404 63.7267C91.8183 66.5857 89.3022 69.7768 85.9005 73.3C83.7223 71.792 81.6845 70.2139 79.7871 68.5656C79.0438 68.8274 78.3025 69.0879 77.5634 69.3472C75.0297 73.0185 71.3208 77.124 66.5005 81.6C64.6046 79.4048 63.107 77.11 62.0076 74.7156C61.9906 74.7214 61.9736 74.7271 61.9566 74.7329C57.5666 78.0239 52.4809 81.6129 46.6005 85.5C46.4919 83.6546 46.5307 81.7208 46.7487 79.7307C34.8727 83.4985 24.3868 86.4495 16.1 88.1L2 35.8C17.4127 31.2452 33.8626 27.3889 51.0283 24.0364C50.7946 23.4781 50.4758 22.8342 49.9005 22C53.5696 22.051 56.9791 22.1539 60.1024 22.3219C62.6156 21.8625 65.1425 21.4128 67.6822 20.9724C67.2024 19.3847 66.752 17.817 66.4005 16.2C72.2572 16.7394 76.9262 17.6352 80.499 18.8415C81.6594 18.6564 82.8221 18.473 83.987 18.2913C84.4558 17.0102 84.9764 15.746 85.5073 14.4568C85.638 14.1396 85.7692 13.8209 85.9005 13.5C90.2208 14.2311 93.5251 15.2274 95.7545 16.518C100.597 15.8128 105.472 15.1319 110.372 14.4714C115.378 11.112 119.968 8.62717 124.997 5.90413C127.251 4.68395 129.593 3.41594 132.1 2C131.747 2.78071 131.396 3.55491 131.047 4.32292C129.029 8.7687 127.106 13.0071 125.4 17.1C129.7 17.4 133.8 17.8 137.7 18.4C137.163 19.04 136.63 19.6734 136.103 20.3005C132.51 24.5727 129.165 28.5504 126.2 32.3C129.3 33.4 132.2 34.7 134.9 36.1C133.5 39 132.2 41.9 131 44.6C133.5 48.1 135.6 51.8 137.3 55.6C135.752 55.3472 134.284 55.1843 132.772 55.0166C129.809 54.6878 126.681 54.3407 122.46 53.2626Z" fill="white"/>
<path d="M122.46 53.2626L122.769 52.0514C122.527 51.9895 122.272 52.0018 122.036 52.0865L122.46 53.2626ZM112.942 56.695L113.366 57.8708L113.366 57.8708L112.942 56.695ZM93.404 63.7267L92.9827 62.5499C92.6969 62.6522 92.4581 62.855 92.3109 63.1204L93.404 63.7267ZM85.9005 73.3L85.189 74.3277C85.6925 74.6763 86.3744 74.6088 86.7997 74.1682L85.9005 73.3ZM79.7871 68.5656L80.6069 67.6219C80.2675 67.3271 79.7959 67.2372 79.3719 67.3866L79.7871 68.5656ZM77.5634 69.3472L77.1496 68.1677C76.9001 68.2553 76.6848 68.4196 76.5346 68.6372L77.5634 69.3472ZM66.5005 81.6L65.5545 82.417C65.7762 82.6738 66.0929 82.8295 66.4317 82.8481C66.7705 82.8668 67.1024 82.7469 67.351 82.516L66.5005 81.6ZM62.0076 74.7156L63.1436 74.194C62.8766 73.6124 62.2134 73.3265 61.6071 73.5315L62.0076 74.7156ZM61.9566 74.7329L61.556 73.5488C61.4306 73.5912 61.3128 73.6533 61.2069 73.7327L61.9566 74.7329ZM46.6005 85.5L45.3526 85.5734C45.3789 86.0196 45.6414 86.4178 46.0411 86.6178C46.4408 86.8179 46.9169 86.7892 47.2898 86.5428L46.6005 85.5ZM46.7487 79.7307L47.9913 79.8668C48.0373 79.4466 47.8678 79.0316 47.5408 78.7637C47.2138 78.4958 46.7736 78.4114 46.3707 78.5392L46.7487 79.7307ZM16.1 88.1L14.8931 88.4254C15.0644 89.0607 15.6988 89.4545 16.3442 89.3259L16.1 88.1ZM2 35.8L1.64574 34.6012C0.994902 34.7936 0.616432 35.4701 0.793092 36.1254L2 35.8ZM51.0283 24.0364L51.2679 25.2632C51.6367 25.1912 51.9536 24.957 52.1307 24.6256C52.3079 24.2941 52.3265 23.9005 52.1814 23.5538L51.0283 24.0364ZM49.9005 22L49.9178 20.7501C49.4502 20.7436 49.0181 20.9987 48.7978 21.4112C48.5776 21.8237 48.606 22.3247 48.8715 22.7097L49.9005 22ZM60.1024 22.3219L60.0352 23.5701C60.133 23.5754 60.2309 23.5692 60.3272 23.5516L60.1024 22.3219ZM67.6822 20.9724L67.8958 22.204C68.2485 22.1428 68.558 21.9334 68.746 21.6287C68.9339 21.3241 68.9823 20.9535 68.8787 20.6108L67.6822 20.9724ZM66.4005 16.2L66.5151 14.9553C66.1185 14.9187 65.7282 15.0734 65.4643 15.3717C65.2003 15.6701 65.0944 16.0763 65.179 16.4655L66.4005 16.2ZM80.499 18.8415L80.0991 20.0258C80.291 20.0906 80.4958 20.1078 80.6958 20.0759L80.499 18.8415ZM83.987 18.2913L84.1797 19.5263C84.6289 19.4562 85.0046 19.1478 85.1609 18.7208L83.987 18.2913ZM85.5073 14.4568L84.3515 13.9808L84.3515 13.9808L85.5073 14.4568ZM85.9005 13.5L86.1091 12.2675C85.5323 12.1699 84.965 12.4853 84.7435 13.0267L85.9005 13.5ZM95.7545 16.518L95.1282 17.5998C95.3719 17.7409 95.656 17.7955 95.9346 17.755L95.7545 16.518ZM110.372 14.4714L110.539 15.7102C110.729 15.6846 110.91 15.6159 111.069 15.5093L110.372 14.4714ZM124.997 5.90413L125.592 7.00337L125.592 7.00337L124.997 5.90413ZM132.1 2L133.239 2.51564C133.462 2.023 133.343 1.44277 132.944 1.07773C132.545 0.712694 131.957 0.645639 131.486 0.911558L132.1 2ZM131.047 4.32292L129.909 3.80633L129.909 3.80634L131.047 4.32292ZM125.4 17.1L124.247 16.6192C124.092 16.9908 124.125 17.4142 124.337 17.7567C124.548 18.0993 124.912 18.319 125.313 18.347L125.4 17.1ZM137.7 18.4L138.658 19.204C138.948 18.8582 139.029 18.3826 138.87 17.96C138.711 17.5373 138.337 17.2332 137.891 17.1645L137.7 18.4ZM136.103 20.3005L135.146 19.496L135.146 19.496L136.103 20.3005ZM126.2 32.3L125.22 31.5247C124.97 31.841 124.888 32.2585 124.999 32.6459C125.111 33.0334 125.402 33.3432 125.782 33.478L126.2 32.3ZM134.9 36.1L136.026 36.6434C136.32 36.0343 136.076 35.3017 135.476 34.9903L134.9 36.1ZM131 44.6L129.858 44.0923C129.678 44.4969 129.726 44.9663 129.983 45.3266L131 44.6ZM137.3 55.6L137.099 56.8337C137.553 56.9078 138.011 56.7268 138.291 56.3624C138.571 55.9981 138.629 55.5092 138.441 55.0895L137.3 55.6ZM132.772 55.0166L132.634 56.2589L132.634 56.2589L132.772 55.0166ZM122.036 52.0865C118.866 53.2284 115.69 54.3744 112.518 55.5192L113.366 57.8708C116.539 56.726 119.714 55.5802 122.883 54.4386L122.036 52.0865ZM112.518 55.5192C105.966 57.8835 99.4284 60.2425 92.9827 62.5499L93.8253 64.9036C100.274 62.595 106.815 60.2349 113.366 57.8708L112.518 55.5192ZM92.3109 63.1204C90.7987 65.8468 88.3639 68.949 85.0012 72.4318L86.7997 74.1682C90.2405 70.6046 92.8378 67.3246 94.4971 64.333L92.3109 63.1204ZM86.612 72.2723C84.4694 70.7889 82.468 69.2387 80.6069 67.6219L78.9673 69.5092C80.9011 71.1891 82.9752 72.7951 85.189 74.3277L86.612 72.2723ZM79.3719 67.3866C78.629 67.6482 77.8882 67.9086 77.1496 68.1677L77.9773 70.5268C78.7168 70.2673 79.4585 70.0065 80.2023 69.7446L79.3719 67.3866ZM76.5346 68.6372C74.0709 72.2071 70.4321 76.2434 65.6499 80.684L67.351 82.516C72.2094 78.0046 75.9885 73.8299 78.5922 70.0573L76.5346 68.6372ZM67.4465 80.783C65.6199 78.6679 64.1892 76.4713 63.1436 74.194L60.8717 75.2372C62.0248 77.7487 63.5893 80.1417 65.5545 82.417L67.4465 80.783ZM61.6071 73.5315C61.5912 73.5369 61.5726 73.5432 61.556 73.5488L62.3573 75.9169C62.3747 75.911 62.3901 75.9058 62.4082 75.8997L61.6071 73.5315ZM61.2069 73.7327C56.8384 77.0076 51.773 80.5824 45.9112 84.4572L47.2898 86.5428C53.1887 82.6435 58.2948 79.0402 62.7064 75.733L61.2069 73.7327ZM47.8483 85.4266C47.7438 83.6495 47.781 81.7859 47.9913 79.8668L45.5061 79.5946C45.2803 81.6558 45.2401 83.6597 45.3526 85.5734L47.8483 85.4266ZM46.3707 78.5392C34.5081 82.3027 24.0742 85.2372 15.8558 86.8741L16.3442 89.3259C24.6993 87.6618 35.2372 84.6942 47.1267 80.9221L46.3707 78.5392ZM17.3069 87.7746L3.20691 35.4746L0.793092 36.1254L14.8931 88.4254L17.3069 87.7746ZM2.35426 36.9987C17.7203 32.4577 34.1305 28.6102 51.2679 25.2632L50.7887 22.8096C33.5947 26.1676 17.1051 30.0327 1.64574 34.6012L2.35426 36.9987ZM48.8715 22.7097C49.3929 23.4658 49.6715 24.0323 49.8752 24.519L52.1814 23.5538C51.9177 22.9239 51.5587 22.2027 50.9295 21.2903L48.8715 22.7097ZM60.1696 21.0737C57.0256 20.9046 53.599 20.8012 49.9178 20.7501L49.8831 23.2499C53.5403 23.3007 56.9326 23.4032 60.0352 23.5701L60.1696 21.0737ZM60.3272 23.5516C62.8365 23.0928 65.3597 22.6438 67.8958 22.204L67.4686 19.7407C64.9253 20.1818 62.3946 20.6322 59.8776 21.0923L60.3272 23.5516ZM65.179 16.4655C65.5414 18.1326 66.0035 19.7386 66.4856 21.3339L68.8787 20.6108C68.4013 19.0307 67.9626 17.5015 67.622 15.9345L65.179 16.4655ZM80.8988 17.6571C77.2014 16.4088 72.4279 15.4999 66.5151 14.9553L66.2858 17.4447C72.0865 17.979 76.651 18.8616 80.0991 20.0258L80.8988 17.6571ZM80.6958 20.0759C81.8549 19.891 83.0162 19.7079 84.1797 19.5263L83.7943 17.0562C82.6281 17.2382 81.464 17.4218 80.3021 17.6071L80.6958 20.0759ZM84.3515 13.9808C83.8222 15.266 83.2919 16.5533 82.8131 17.8617L85.1609 18.7208C85.6196 17.4671 86.1306 16.226 86.6631 14.9328L84.3515 13.9808ZM84.7435 13.0267C84.6129 13.346 84.4822 13.6634 84.3515 13.9808L86.6631 14.9328C86.7937 14.6158 86.9255 14.2957 87.0574 13.9733L84.7435 13.0267ZM96.3808 15.4362C93.959 14.0342 90.4813 13.0074 86.1091 12.2675L85.6919 14.7325C89.9604 15.4548 93.0912 16.4205 95.1282 17.5998L96.3808 15.4362ZM95.9346 17.755C100.773 17.0505 105.643 16.3701 110.539 15.7102L110.206 13.2326C105.301 13.8936 100.422 14.5752 95.5744 15.281L95.9346 17.755ZM111.069 15.5093C116.019 12.1875 120.559 9.72872 125.592 7.00337L124.402 4.8049C119.377 7.52561 114.738 10.0365 109.676 13.4335L111.069 15.5093ZM125.592 7.00337C127.845 5.7837 130.197 4.51065 132.715 3.08844L131.486 0.911558C128.99 2.32123 126.657 3.58419 124.402 4.8049L125.592 7.00337ZM130.962 1.48436C130.609 2.26452 130.257 3.03825 129.909 3.80633L132.185 4.83951C132.534 4.07158 132.885 3.2969 133.239 2.51564L130.962 1.48436ZM129.909 3.80634C127.893 8.24829 125.961 12.505 124.247 16.6192L126.554 17.5808C128.251 13.5091 130.166 9.28911 132.185 4.83951L129.909 3.80634ZM125.313 18.347C129.593 18.6456 133.656 19.0425 137.51 19.6355L137.891 17.1645C133.945 16.5575 129.808 16.1544 125.487 15.853L125.313 18.347ZM136.743 17.596C136.206 18.2357 135.674 18.8689 135.146 19.496L137.06 21.105C137.587 20.478 138.12 19.8443 138.658 19.204L136.743 17.596ZM135.146 19.496C131.557 23.7646 128.199 27.7575 125.22 31.5247L127.181 33.0753C130.132 29.3433 133.464 25.3807 137.06 21.105L135.146 19.496ZM125.782 33.478C128.822 34.5564 131.669 35.8324 134.325 37.2097L135.476 34.9903C132.732 33.5676 129.779 32.2436 126.618 31.122L125.782 33.478ZM133.775 35.5566C132.366 38.4757 131.059 41.3913 129.858 44.0923L132.143 45.1077C133.342 42.4087 134.635 39.5243 136.026 36.6434L133.775 35.5566ZM129.983 45.3266C132.434 48.757 134.493 52.3844 136.159 56.1105L138.441 55.0895C136.708 51.2156 134.567 47.443 132.018 43.8735L129.983 45.3266ZM137.502 54.3663C135.917 54.1076 134.417 53.9415 132.91 53.7742L132.634 56.2589C134.15 56.4271 135.587 56.5868 137.099 56.8337L137.502 54.3663ZM132.91 53.7742C129.956 53.4464 126.9 53.1067 122.769 52.0514L122.15 54.4737C126.461 55.5748 129.663 55.9293 132.634 56.2589L132.91 53.7742Z" fill="#3A5E77"/>
</svg>
