<svg width="190" height="180" viewBox="0 0 190 180" fill="none" xmlns="http://www.w3.org/2000/svg">
<path d="M188.3 115.9C182.5 107.5 172.8 102 161.8 102H146V52C146 24.4 123.6 2 95.9998 2C68.3998 2 45.9998 24.4 45.9998 52V102H27.0998C16.4998 102 7.0998 107.1 1.2998 115V193H188.3V115.9Z" fill="white"/>
<path d="M188.3 115.9C182.5 107.5 172.8 102 161.8 102H146V52C146 24.4 123.6 2 95.9998 2C68.3998 2 45.9998 24.4 45.9998 52V102H27.0998C16.4998 102 7.0998 107.1 1.2998 115" stroke="#3A5E77" stroke-width="2.5" stroke-linecap="round"/>
<path d="M94.9994 136.4C72.0994 136.4 51.9994 147.5 40.8994 164.1C56.4994 174.1 75.0994 180 94.9994 180C114.899 180 133.499 174.2 149.099 164.1C137.999 147.5 117.899 136.4 94.9994 136.4Z" fill="#DDF1FA"/>
</svg>
