<svg width="25" height="42" viewBox="0 0 25 42" fill="none" xmlns="http://www.w3.org/2000/svg">
<path d="M25 3H10V38H25V3Z" fill="white"/>
<path d="M12.3998 1.7998C7.49981 6.3998 3.9998 11.1998 1.7998 15.9998C5.1998 15.8998 8.59981 15.8998 11.8998 16.0998C7.89981 19.7998 5.09981 23.6998 3.69981 27.6998C5.79981 27.6998 7.89981 27.6998 9.99981 27.8998C7.39981 31.9998 6.1998 36.1998 6.2998 40.3998C7.4998 39.6998 9.69981 38.9998 11.4998 38.4998" fill="white"/>
<path d="M12.3998 1.7998C7.49981 6.3998 3.9998 11.1998 1.7998 15.9998C5.1998 15.8998 8.59981 15.8998 11.8998 16.0998C7.89981 19.7998 5.09981 23.6998 3.69981 27.6998C5.79981 27.6998 7.89981 27.6998 9.99981 27.8998C7.39981 31.9998 6.1998 36.1998 6.2998 40.3998C7.4998 39.6998 9.69981 38.9998 11.4998 38.4998" stroke="#3A5E77" stroke-width="2.5" stroke-linecap="round" stroke-linejoin="round"/>
</svg>
