<svg width="78" height="31" viewBox="0 0 78 31" fill="none" xmlns="http://www.w3.org/2000/svg">
<path d="M76.1415 12.62C71.2115 13.8917 66.2676 14.7594 61.3546 15.2453C61.0186 18.62 60.5786 22.0018 60.0326 25.3836C55.4635 23.9038 51.1236 22.1291 47.0366 20.1049C46.0566 23.2109 44.9665 26.3038 43.7695 29.3766C38.2555 26.2786 33.2105 22.7655 28.6725 18.9432C26.8665 21.8614 24.9276 24.7311 22.8566 27.5442C14.9406 23.3786 7.80355 18.3382 1.56055 12.6574L2.66755 0.770508H76.1426V12.62H76.1415Z" fill="white"/>
<path d="M1.55957 12.6585C7.80257 18.3393 14.9396 23.3797 22.8556 27.5453C24.9266 24.7322 26.8656 21.8625 28.6716 18.9443C33.2086 22.7676 38.2546 26.2807 43.7686 29.3777C44.9656 26.3039 46.0556 23.212 47.0356 20.1059C51.1226 22.1302 55.4626 23.9049 60.0316 25.3847C60.5766 22.0029 61.0176 18.6211 61.3536 15.2463C66.2666 14.7605 71.2106 13.8928 76.1406 12.6211" fill="white"/>
<path d="M1.55957 12.6585C7.80257 18.3393 14.9396 23.3797 22.8556 27.5453C24.9266 24.7322 26.8656 21.8625 28.6716 18.9443C33.2086 22.7676 38.2546 26.2807 43.7686 29.3777C44.9656 26.3039 46.0556 23.212 47.0356 20.1059C51.1226 22.1302 55.4626 23.9049 60.0316 25.3847C60.5766 22.0029 61.0176 18.6211 61.3536 15.2463C66.2666 14.7605 71.2106 13.8928 76.1406 12.6211" stroke="#3A5E77" stroke-width="2.5" stroke-linecap="round" stroke-linejoin="round"/>
</svg>
