<svg width="49" height="19" viewBox="0 0 49 19" fill="none" xmlns="http://www.w3.org/2000/svg">
<path d="M1.45703 17.2113C3.21203 13.086 6.96703 8.86581 12.71 5.32238C13.689 7.91329 14.593 10.5143 15.422 13.1234C18.584 8.81531 24.048 4.76985 31.694 1.7749C30.957 5.10117 30.106 8.4143 29.14 11.7113C33.997 9.57389 40.189 8.0345 47.568 7.51329C45.165 10.7759 42.547 13.9688 39.716 17.083" fill="white"/>
<path d="M1.45703 17.2113C3.21203 13.086 6.96703 8.86581 12.71 5.32238C13.689 7.91329 14.593 10.5143 15.422 13.1234C18.584 8.81531 24.048 4.76985 31.694 1.7749C30.957 5.10117 30.106 8.4143 29.14 11.7113C33.997 9.57389 40.189 8.0345 47.568 7.51329C45.165 10.7759 42.547 13.9688 39.716 17.083" stroke="#3A5E77" stroke-width="2.5" stroke-linecap="round" stroke-linejoin="round"/>
</svg>
