<svg width="30" height="42" viewBox="0 0 30 42" fill="none" xmlns="http://www.w3.org/2000/svg">
<path d="M20 3H0V38H20V3Z" fill="white"/>
<path d="M17.5996 1.7998C22.4996 6.3998 25.9996 11.1998 28.1996 15.9998C24.7996 15.8998 21.3996 15.8998 18.0996 16.0998C22.0996 19.7998 24.8996 23.6998 26.2996 27.6998C24.1996 27.6998 22.0996 27.6998 19.9996 27.8998C22.5996 31.9998 23.7996 36.1998 23.6996 40.3998C22.4996 39.6998 20.2996 38.9998 18.4996 38.4998" fill="white"/>
<path d="M17.5996 1.7998C22.4996 6.3998 25.9996 11.1998 28.1996 15.9998C24.7996 15.8998 21.3996 15.8998 18.0996 16.0998C22.0996 19.7998 24.8996 23.6998 26.2996 27.6998C24.1996 27.6998 22.0996 27.6998 19.9996 27.8998C22.5996 31.9998 23.7996 36.1998 23.6996 40.3998C22.4996 39.6998 20.2996 38.9998 18.4996 38.4998" stroke="#3A5E77" stroke-width="2.5" stroke-linecap="round" stroke-linejoin="round"/>
</svg>
