<svg width="25" height="9" viewBox="0 0 25 9" fill="none" xmlns="http://www.w3.org/2000/svg">
<path d="M12.2 7.02023C11.8 7.02023 10.8 7.02023 10.4 7.02023C7.70004 6.7172 5.10004 5.90912 2.40004 4.49498C1.70004 4.19195 1.50004 3.28285 1.80004 2.67679C2.00004 2.17174 2.50004 1.96973 3.00004 1.96973C3.20004 1.96973 3.50004 2.07073 3.60004 2.17174C6.60004 3.68689 9.40003 4.49498 12.2 4.49498C15 4.49498 17.9 3.7879 20.8 2.17174C21 2.07073 21.2 1.96973 21.4 1.96973C21.9 1.96973 22.4 2.27275 22.6 2.67679C23 3.38386 22.7 4.19195 22 4.59599C19.4 6.01013 16.7 6.81821 14.1 7.12124C13.7 7.02023 12.5 7.02023 12.2 7.02023Z" fill="#3A5E77" stroke="#3A5E77" stroke-width="2.5" stroke-linejoin="round"/>
</svg>
